<?xml version="1.0" ?>
<!DOCTYPE svg  PUBLIC '-//W3C//DTD SVG 1.1//EN'  'http://www.w3.org/Graphics/SVG/1.1/DTD/svg11.dtd'>
<!-- Uploaded to: SVG Repo, www.svgrepo.com, Generator: SVG Repo Mixer Tools -->
<svg width="800px" height="800px" viewBox="0 0 32 32" enable-background="new 0 0 32 32" version="1.1" xml:space="preserve" xmlns="http://www.w3.org/2000/svg" xmlns:xlink="http://www.w3.org/1999/xlink">
<g id="Layer_2"/>
<g id="Layer_3"/>
<g id="Layer_4"/>
<g id="Layer_5"/>
<g id="Layer_6"/>
<g id="Layer_7"/>
<g id="Layer_8"/>
<g id="Layer_9"/>
<g id="Layer_10"/>
<g id="Layer_11"/>
<g id="Layer_12"/>
<g id="Layer_13">
<path d="M24,14c-3.86,0-7,3.09-7,6.89c0,2.5101,2.7787,6.0173,4.6625,8.11H15v-6c0-0.5527-0.4473-1-1-1H9v-4.5801   c1.3278-1.3408,6-6.2732,6-9.5298C15,4.09,11.86,1,8,1S1,4.09,1,7.89c0,3.2567,4.6722,8.1891,6,9.5298V23c0,0.5527,0.4473,1,1,1h5   v6c0,0.5527,0.4473,1,1,1h10c0.1298,0,0.2587-0.027,0.3816-0.077c0.0383-0.0158,0.067-0.0452,0.1027-0.0655   c0.074-0.041,0.1506-0.0757,0.2157-0.1376c0.64-0.63,6.3-6.25,6.3-9.83C31,17.09,27.86,14,24,14z" fill="#2197F3"/>
<path d="M24,14c-3.86,0-7,3.09-7,6.89c0,3.58,5.66,9.2,6.3,9.83C23.5,30.91,23.75,31,24,31s0.5-0.09,0.7-0.28   c0.64-0.63,6.3-6.25,6.3-9.83C31,17.09,27.86,14,24,14z" fill="#3F51B5"/>
<path d="M8,1C4.14,1,1,4.09,1,7.89c0,3.58,5.66,9.2,6.3,9.83C7.5,17.91,7.75,18,8,18s0.5-0.09,0.7-0.28   c0.64-0.63,6.3-6.25,6.3-9.83C15,4.09,11.86,1,8,1z" fill="#3F51B5"/>
<path d="M10,7.89c0,1.11-0.9,2-2,2S6,9,6,7.89c0-1.1,0.9-2,2-2S10,6.79,10,7.89z" fill="#2197F3"/>
<path d="M26,20.89c0,1.11-0.9,2-2,2s-2-0.89-2-2c0-1.1,0.9-2,2-2S26,19.79,26,20.89z" fill="#2197F3"/>
</g>
<g id="Layer_14"/>
<g id="Layer_15"/>
<g id="Layer_16"/>
<g id="Layer_17"/>
<g id="Layer_18"/>
<g id="Layer_19"/>
<g id="Maps_11_"/>
<g id="Maps_10_"/>
<g id="Maps_9_"/>
<g id="Maps_8_"/>
<g id="Maps_7_"/>
<g id="Maps_6_"/>
<g id="Maps_5_"/>
<g id="Maps_4_"/>
<g id="Maps_3_"/>
<g id="Maps_2_"/>
<g id="Maps_1_"/>
<g id="Maps"/>
</svg>